<svg xmlns="http://www.w3.org/2000/svg" viewBox="0 0 175.28 50"><defs><style>.a{fill:#fff;}.b{fill:#5f7e8a;}</style></defs><title>logo</title><path class="a" d="M47.62,42.92V37.41h1.15a4.12,4.12,0,0,1,1.31.17,2.41,2.41,0,0,1,.94.54,2.64,2.64,0,0,1,.86,2.05,2.69,2.69,0,0,1-1.83,2.6,4.28,4.28,0,0,1-1.29.15Zm.83-.78h.37a3,3,0,0,0,.93-.12,1.82,1.82,0,0,0,.67-.39,2.05,2.05,0,0,0,0-2.93,2.27,2.27,0,0,0-1.61-.51h-.37Z"/><path class="a" d="M53.75,37.41v5.51h-.83V37.41Z"/><path class="a" d="M57.91,40.05h2.28v.19A3.59,3.59,0,0,1,60,41.33a2.25,2.25,0,0,1-.48.83,2.48,2.48,0,0,1-2,.87,2.68,2.68,0,0,1-2-.84,2.87,2.87,0,0,1,3.26-4.62,3.49,3.49,0,0,1,1,.86l-.59.56a2,2,0,0,0-1.65-.9,2,2,0,0,0-1.47.6,2,2,0,0,0-.59,1.49,1.93,1.93,0,0,0,.66,1.51,2,2,0,0,0,1.34.56,1.67,1.67,0,0,0,1.1-.42,1.44,1.44,0,0,0,.54-1H57.91Z"/><path class="a" d="M62.06,37.41v5.51h-.83V37.41Z"/><path class="a" d="M64.91,38.19v4.73h-.83V38.19H62.81v-.78h3.36v.78Z"/><path class="a" d="M69.85,41.58H67.49l-.61,1.34H66l2.73-5.85,2.63,5.85h-.91Zm-.34-.78-.82-1.87-.85,1.87Z"/><path class="a" d="M72.86,37.41v4.73h1.62v.78H72V37.41Z"/><path class="a" d="M77.33,42.92,78.49,37l1.89,4.28,2-4.28,1,5.92h-.85L82,39.6l-1.63,3.58-1.59-3.59-.59,3.33Z"/><path class="a" d="M87.79,41.58H85.43l-.62,1.34h-.89l2.72-5.85,2.63,5.85h-.91Zm-.34-.78-.82-1.87-.86,1.87Z"/><path class="a" d="M91.83,40.57l1.7,2.35h-1l-1.58-2.25h-.15v2.25H90V37.41h1a2.44,2.44,0,0,1,1.57.41A1.52,1.52,0,0,1,93.05,39a1.56,1.56,0,0,1-.34,1A1.44,1.44,0,0,1,91.83,40.57Zm-1-.63h.27c.79,0,1.18-.3,1.18-.9s-.38-.85-1.15-.85h-.3Z"/><path class="a" d="M95.19,39.61l2.15-2.2h1.11L96,39.91l2.5,3H97.35l-2-2.45-.17.17v2.28h-.83V37.41h.83Z"/><path class="a" d="M102.24,38.19H100v1.33h2.14v.78H100v1.84h2.2v.78h-3V37.41h3Z"/><path class="a" d="M104.86,38.19v4.73H104V38.19h-1.26v-.78h3.36v.78Z"/><path class="a" d="M107.69,37.41v5.51h-.83V37.41Z"/><path class="a" d="M109,42.92V37l4,4.2V37.41h.83v5.85l-4-4.2v3.86Z"/><path class="a" d="M118.08,40.05h2.27v.19a3.61,3.61,0,0,1-.14,1.09,2.4,2.4,0,0,1-.48.83,2.51,2.51,0,0,1-2,.87,2.68,2.68,0,0,1-2-.84,2.88,2.88,0,0,1,3.27-4.62,3.62,3.62,0,0,1,1,.86l-.59.56a2,2,0,0,0-1.66-.9,2,2,0,0,0-1.46.6,2,2,0,0,0-.6,1.49,1.91,1.91,0,0,0,.67,1.51,2,2,0,0,0,1.33.56,1.67,1.67,0,0,0,1.11-.42,1.48,1.48,0,0,0,.54-1h-1.37Z"/><path class="a" d="M124.49,37.41v5.51h-.83V37.41Z"/><path class="a" d="M128.93,38.23l-.68.4a1,1,0,0,0-.36-.42.81.81,0,0,0-.46-.12.84.84,0,0,0-.57.2.59.59,0,0,0-.23.48c0,.27.2.49.6.65l.55.23a2.4,2.4,0,0,1,1,.66,1.48,1.48,0,0,1,.31,1,1.67,1.67,0,0,1-.51,1.25,1.87,1.87,0,0,1-2.45.08,1.92,1.92,0,0,1-.57-1.2l.84-.18a1.43,1.43,0,0,0,.2.67.85.85,0,0,0,.75.35A.83.83,0,0,0,128,42a.9.9,0,0,0,.26-.66.92.92,0,0,0,0-.29.89.89,0,0,0-.14-.25,1.84,1.84,0,0,0-.25-.21,2,2,0,0,0-.36-.18l-.53-.23a1.52,1.52,0,0,1-1.13-1.4,1.3,1.3,0,0,1,.48-1,1.71,1.71,0,0,1,1.18-.43A1.66,1.66,0,0,1,128.93,38.23Z"/><path class="a" d="M133.85,38.19v4.73H133V38.19h-1.27v-.78h3.36v.78Z"/><path class="a" d="M136.68,39.57h2.38V37.41h.83v5.51h-.83V40.35h-2.38v2.57h-.83V37.41h.83Z"/><path class="a" d="M144.25,38.19H142v1.33h2.15v.78H142v1.84h2.21v.78h-3V37.41h3Z"/><path class="a" d="M150.35,38.19h-1.92v1.33h1.85v.78h-1.85v2.62h-.83V37.41h2.75Z"/><path class="a" d="M152.15,37.41v3.32a1.8,1.8,0,0,0,.23,1,1.11,1.11,0,0,0,1,.47,1.13,1.13,0,0,0,1-.47,1.84,1.84,0,0,0,.23-1V37.41h.83V41a2,2,0,0,1-.54,1.43,2,2,0,0,1-1.5.63,2,2,0,0,1-2-2.06V37.41Z"/><path class="a" d="M158.23,38.19v4.73h-.83V38.19h-1.26v-.78h3.36v.78Z"/><path class="a" d="M161.07,37.41v3.32a1.88,1.88,0,0,0,.23,1,1.13,1.13,0,0,0,1,.47,1.14,1.14,0,0,0,1-.47,1.84,1.84,0,0,0,.23-1V37.41h.83V41a2,2,0,0,1-.54,1.43,2.1,2.1,0,0,1-3,0,2,2,0,0,1-.54-1.43V37.41Z"/><path class="a" d="M167.5,40.57l1.71,2.35h-1l-1.57-2.25h-.15v2.25h-.83V37.41h1a2.45,2.45,0,0,1,1.58.41,1.51,1.51,0,0,1,.53,1.21,1.61,1.61,0,0,1-.33,1A1.44,1.44,0,0,1,167.5,40.57Zm-1-.63h.26c.79,0,1.19-.3,1.19-.9s-.39-.85-1.15-.85h-.3Z"/><path class="a" d="M173.08,38.19h-2.21v1.33H173v.78h-2.14v1.84h2.21v.78h-3V37.41h3Z"/><path class="a" d="M63.89,8.72l-3.25,1.93a5.45,5.45,0,0,0-1.73-2.06A4,4,0,0,0,56.69,8,4.07,4.07,0,0,0,53.93,9a2.92,2.92,0,0,0-1.1,2.34q0,1.93,2.88,3.12l2.65,1.08a11.27,11.27,0,0,1,4.72,3.19,7.15,7.15,0,0,1,1.5,4.61,8.15,8.15,0,0,1-2.44,6.05,8.39,8.39,0,0,1-6.1,2.4,8.16,8.16,0,0,1-5.7-2A9.44,9.44,0,0,1,47.57,24l4.06-.89a6.85,6.85,0,0,0,1,3.23,4.55,4.55,0,0,0,6.71.46,4.3,4.3,0,0,0,1.24-3.18,4.53,4.53,0,0,0-.21-1.41A3.64,3.64,0,0,0,59.65,21a5.14,5.14,0,0,0-1.17-1,10.94,10.94,0,0,0-1.72-.9L54.2,18q-5.45-2.3-5.44-6.73a6.4,6.4,0,0,1,2.28-5,8.27,8.27,0,0,1,5.69-2Q61.31,4.26,63.89,8.72Z"/><path class="b" d="M67.29,2.28h3.87V16a6.67,6.67,0,0,1,4.55-1.85,5.85,5.85,0,0,1,4.53,1.84q1.44,1.59,1.44,5.1V31.29H77.82V21.4a4.75,4.75,0,0,0-.71-2.91,2.74,2.74,0,0,0-2.3-.91A3.15,3.15,0,0,0,72,18.84a8.59,8.59,0,0,0-.8,4.36v8.09H67.29Z"/><path class="b" d="M84.42,22.81A8.3,8.3,0,0,1,87,16.64a9.14,9.14,0,0,1,12.67,0,8.49,8.49,0,0,1,2.58,6.28,8.48,8.48,0,0,1-2.59,6.31,8.88,8.88,0,0,1-6.41,2.52A8.48,8.48,0,0,1,87,29.19,8.62,8.62,0,0,1,84.42,22.81Zm4,.06a5.6,5.6,0,0,0,1.34,4,5.19,5.19,0,0,0,7.24,0A5.48,5.48,0,0,0,98.31,23,5.47,5.47,0,0,0,97,19.06a5.13,5.13,0,0,0-7.21,0A5.37,5.37,0,0,0,88.37,22.87Z"/><path class="b" d="M105,14.56h3.86v1.5a7.16,7.16,0,0,1,1.89-1.53,4.26,4.26,0,0,1,2-.43,6.25,6.25,0,0,1,3.19,1l-1.76,3.54a3.76,3.76,0,0,0-2.15-.79q-3.16,0-3.16,4.78v8.67H105Z"/><path class="b" d="M122,18.17V31.29h-3.86V18.17H116.5V14.56h1.65V8.43H122v6.13h3v3.61Z"/><path class="a" d="M172.06,8.72l-3.24,1.93a5.54,5.54,0,0,0-1.74-2.06A4,4,0,0,0,164.87,8,4.1,4.1,0,0,0,162.1,9a3,3,0,0,0-1.1,2.34q0,1.93,2.89,3.12l2.64,1.08a11.31,11.31,0,0,1,4.73,3.19,7.2,7.2,0,0,1,1.49,4.61,8.11,8.11,0,0,1-2.44,6.05,8.39,8.39,0,0,1-6.1,2.4,8.16,8.16,0,0,1-5.7-2A9.43,9.43,0,0,1,155.75,24l4.05-.89a6.85,6.85,0,0,0,1,3.23,4.57,4.57,0,0,0,6.72.46,4.33,4.33,0,0,0,1.23-3.18,4.53,4.53,0,0,0-.21-1.41,3.61,3.61,0,0,0-.67-1.19,5.2,5.2,0,0,0-1.18-1,11.26,11.26,0,0,0-1.71-.9L162.38,18q-5.44-2.3-5.45-6.73a6.38,6.38,0,0,1,2.29-5,8.23,8.23,0,0,1,5.68-2Q169.49,4.26,172.06,8.72Z"/><polygon class="a" points="140.77 23.39 132.3 4.22 131.39 4.22 126.09 31.29 130.22 31.29 133.08 15.27 140.17 31.31 141.25 31.31 148.55 15.28 151.11 31.29 155.21 31.29 150.45 4.22 149.54 4.22 140.77 23.39"/><circle class="b" cx="22.22" cy="25.42" r="22.3"/><path class="a" d="M39.2,20.06a.45.45,0,0,0,0-.11v0l0,0v0l0,0s0,0,0,0,0,0,0,0l0-.05-.05,0a.32.32,0,0,0-.09,0h0L4.75,18.74a.33.33,0,0,0-.31.2.32.32,0,0,0,.08.36l7.86,7.31-1,8.37s0,0,0,.05,0,0,0,.07a.24.24,0,0,0,.06.11s0,0,0,0h0l0,0a.3.3,0,0,0,.18.06.33.33,0,0,0,.16-.05l6.3-3.6L23,36.19a.33.33,0,0,0,.46,0l15.71-16,0,0,0,0S39.19,20.08,39.2,20.06Zm-23.79,9,2.16,2-5,3Zm-.19-.83a.36.36,0,0,0-.16.14s0,0,0,0l-2.81,5L13,26.74l20-5Zm21.29-8-23.69,5.9L5.6,19.41ZM23.19,35.5l-7.25-6.8,21.73-7.95Z"/></svg>