<?xml version="1.0" encoding="utf-8"?>
<!-- Generator: Adobe Illustrator 24.0.1, SVG Export Plug-In . SVG Version: 6.00 Build 0)  -->
<svg version="1.1" id="Layer_1" xmlns="http://www.w3.org/2000/svg" xmlns:xlink="http://www.w3.org/1999/xlink" x="0px" y="0px"
	 viewBox="0 0 500 178.5" style="enable-background:new 0 0 500 178.5;" xml:space="preserve">
<style type="text/css">
	.st0{display:none;}
	.st1{display:inline;fill:#FFFFFF;}
	.st2{display:inline;}
	.st3{fill:#FFFFFF;}
	.st4{fill:none;stroke:#F6BBA1;stroke-linecap:round;stroke-linejoin:round;stroke-miterlimit:10;}
	.st5{fill:#F6BBA1;}
	.st6{display:inline;fill:#607E8B;}
	.st7{fill:#607E8B;}
	.st8{fill:none;stroke:#FFFFFF;stroke-linecap:round;stroke-linejoin:round;stroke-miterlimit:10;}
</style>
<g class="st0">
	<circle class="st1" cx="71.5" cy="89.2" r="61.2"/>
	<g class="st2">
		<g>
			<path class="st3" d="M187.6,105.9c0,3.1-0.6,5.9-1.9,8.5c-1.3,2.6-3,4.8-5.1,6.7c-2.1,1.9-4.6,3.4-7.3,4.4
				c-2.8,1.1-5.6,1.6-8.5,1.6c-5,0-9.4-1.5-13.1-4.6c-3.7-3-6.7-7.5-8.9-13.3l8.2-3.8c1.9,4.7,4,8.1,6.2,10c2.2,1.9,4.8,2.9,7.9,2.9
				c1.8,0,3.4-0.3,5-1s3-1.6,4.2-2.8c1.2-1.2,2.2-2.6,2.9-4.2c0.7-1.6,1.1-3.3,1.1-5c0-1.4-0.4-2.7-1.2-3.8c-0.8-1.1-1.8-2.1-2.9-3
				c-1.1-0.9-2.4-1.6-3.8-2.3c-1.4-0.7-2.6-1.3-3.6-1.9c-2.3-1.1-4.6-2.3-6.9-3.4c-2.3-1.1-4.4-2.4-6.3-3.9
				c-1.9-1.5-3.4-3.2-4.6-5.2c-1.2-2-1.8-4.5-1.8-7.4c0-2.7,0.5-5.3,1.4-7.6c0.9-2.3,2.2-4.3,3.9-6c1.7-1.7,3.7-3,6-4
				c2.3-1,4.9-1.5,7.7-1.5c3.7,0,7.2,0.9,10.4,2.8c3.3,1.9,6.2,4.9,8.7,9.2l-7,5.7c-2.2-3.3-4.2-5.7-6.1-6.9c-1.9-1.3-4-1.9-6.3-1.9
				c-2.7,0-5,1-6.9,2.9c-1.8,1.9-2.8,4.3-2.8,7.1c0,1.3,0.4,2.5,1.1,3.4c0.7,1,1.6,1.8,2.6,2.6c1.1,0.8,2.2,1.5,3.4,2
				c1.2,0.6,2.3,1.1,3.2,1.6l12.3,6.5c2.8,1.8,5,3.9,6.5,6.3C186.9,99.5,187.6,102.5,187.6,105.9z"/>
			<path class="st3" d="M234.2,126.2h-8.8V97.5c0-1.9-0.1-3.7-0.3-5.3c-0.2-1.6-0.7-2.9-1.3-4c-0.7-1.1-1.6-1.9-3-2.4
				c-1.3-0.6-3.1-0.9-5.3-0.9c-2.6,0-4.6,0.5-6.2,1.5c-1.6,1-2.8,2.2-3.7,3.8c-0.9,1.6-1.5,3.4-1.8,5.5c-0.4,2.1-0.5,4.3-0.5,6.6
				v23.9h-8.7V47.5h8.7v33.9c3.6-3.1,7.8-4.6,12.7-4.6c3.6,0,6.6,0.5,9,1.5c2.4,1,4.2,2.4,5.6,4.3c1.4,1.8,2.3,4,2.9,6.6
				c0.6,2.6,0.9,5.3,0.9,8.3V126.2z"/>
			<path class="st3" d="M292.6,101.8c0,3.6-0.7,6.9-2,10c-1.3,3.1-3.1,5.8-5.5,8c-2.3,2.3-5.1,4.1-8.2,5.3
				c-3.1,1.3-6.5,1.9-10.2,1.9c-3.5,0-6.8-0.7-9.9-2c-3.1-1.3-5.8-3.1-8.1-5.4c-2.3-2.3-4.2-5-5.5-8c-1.3-3.1-2-6.3-2-9.8
				c0-3.4,0.7-6.7,2-9.8c1.3-3.1,3.1-5.8,5.5-8.1c2.3-2.3,5-4.2,8.1-5.5s6.4-2,9.9-2c3.7,0,7.1,0.6,10.2,1.9
				c3.1,1.3,5.8,3.1,8.2,5.3c2.3,2.3,4.2,5,5.5,8C292,95,292.6,98.3,292.6,101.8z M283.9,102c0-2.5-0.4-4.7-1.3-6.8
				c-0.9-2.1-2.1-3.8-3.7-5.3c-1.6-1.5-3.4-2.7-5.5-3.5c-2.1-0.8-4.4-1.3-6.9-1.3c-2.3,0-4.4,0.4-6.4,1.3c-2,0.9-3.7,2.1-5.1,3.6
				c-1.5,1.5-2.6,3.3-3.4,5.4c-0.8,2.1-1.3,4.2-1.3,6.5c0,2.3,0.4,4.4,1.3,6.5c0.8,2,2,3.8,3.5,5.3c1.5,1.5,3.2,2.8,5.1,3.7
				c1.9,0.9,4,1.4,6.3,1.4c2.5,0,4.8-0.4,6.9-1.3c2.1-0.9,4-2.1,5.5-3.6c1.6-1.5,2.8-3.3,3.7-5.3C283.5,106.6,283.9,104.3,283.9,102
				z"/>
			<path class="st3" d="M321.5,87.3c-1.1-0.6-2-1-2.4-1.1c-0.5-0.1-0.8-0.1-1-0.1c-2,0-3.6,0.5-4.8,1.6s-2.1,2.4-2.8,4.1
				c-0.7,1.7-1.1,3.5-1.3,5.4c-0.2,1.9-0.3,3.7-0.3,5.4v23.7H300V78.1h8.8v4.5c1-1.3,2.3-2.5,4-3.7c1.7-1.1,3.5-1.7,5.2-1.7
				c1,0,2,0.1,3.2,0.3c1.1,0.2,2.8,0.7,4.9,1.5L321.5,87.3z"/>
			<path class="st3" d="M343.3,86.4v39.8h-8.8V86.4h-7.1v-8.3h7.1V60.7h8.8v17.4h10v8.3H343.3z"/>
			<path class="st3" d="M425.4,126.2l-8.7-44.9l-0.4-4.1l-1.3,4.2l-17.8,44.7h-5.3l-17.9-44.6l-1.3-4.5l-0.5,4.4l-9,44.7H354
				l14.1-69.7h5.3l21,52.4l21-52.4h5.3l14,69.7H425.4z"/>
			<path class="st3" d="M481.3,105.9c0,3.1-0.6,5.9-1.9,8.5c-1.3,2.6-3,4.8-5.1,6.7c-2.1,1.9-4.6,3.4-7.3,4.4
				c-2.8,1.1-5.6,1.6-8.5,1.6c-5,0-9.4-1.5-13.1-4.6c-3.7-3-6.7-7.5-8.9-13.3l8.2-3.8c1.9,4.7,4,8.1,6.2,10c2.2,1.9,4.8,2.9,7.9,2.9
				c1.8,0,3.4-0.3,5-1s3-1.6,4.2-2.8c1.2-1.2,2.2-2.6,2.9-4.2c0.7-1.6,1.1-3.3,1.1-5c0-1.4-0.4-2.7-1.2-3.8c-0.8-1.1-1.8-2.1-2.9-3
				c-1.1-0.9-2.4-1.6-3.8-2.3c-1.4-0.7-2.6-1.3-3.6-1.9c-2.3-1.1-4.6-2.3-6.9-3.4c-2.3-1.1-4.4-2.4-6.3-3.9
				c-1.9-1.5-3.4-3.2-4.6-5.2c-1.2-2-1.8-4.5-1.8-7.4c0-2.7,0.5-5.3,1.4-7.6c0.9-2.3,2.2-4.3,3.9-6c1.7-1.7,3.7-3,6-4
				c2.3-1,4.9-1.5,7.7-1.5c3.7,0,7.2,0.9,10.4,2.8c3.3,1.9,6.2,4.9,8.7,9.2l-7,5.7c-2.2-3.3-4.2-5.7-6.1-6.9c-1.9-1.3-4-1.9-6.3-1.9
				c-2.7,0-5,1-6.9,2.9c-1.8,1.9-2.8,4.3-2.8,7.1c0,1.3,0.4,2.5,1.1,3.4c0.7,1,1.6,1.8,2.6,2.6c1.1,0.8,2.2,1.5,3.4,2
				c1.2,0.6,2.3,1.1,3.2,1.6l12.3,6.5c2.8,1.8,5,3.9,6.5,6.3C480.5,99.5,481.3,102.5,481.3,105.9z"/>
		</g>
	</g>
	<g class="st2">
		<polyline class="st4" points="48.6,100.5 121.4,83.9 54.1,107.7 78.3,127.1 121.4,83.9 28.9,84.5 48.6,100.5 45.1,127 63.2,115 		
			"/>
		<line class="st4" x1="45.1" y1="127" x2="54.1" y2="107.7"/>
	</g>
	<g class="st2">
		<path class="st5" d="M69,64c0,1.5-0.3,3-0.9,4.3c-0.6,1.3-1.4,2.5-2.4,3.5c-1,1-2.2,1.8-3.6,2.4c-1.4,0.6-2.8,0.9-4.3,0.9
			c-1.5,0-3-0.3-4.4-0.9c-1.4-0.6-2.6-1.4-3.6-2.4c-1-1-1.8-2.2-2.4-3.5c-0.6-1.3-0.9-2.8-0.9-4.3c0-1.5,0.3-2.9,0.9-4.3
			c0.6-1.3,1.4-2.5,2.4-3.5c1-1,2.2-1.8,3.6-2.4c1.4-0.6,2.8-0.9,4.4-0.9c1.5,0,3,0.3,4.3,0.9c1.4,0.6,2.6,1.4,3.6,2.4
			c1,1,1.8,2.2,2.4,3.5C68.7,61,69,62.5,69,64z M65,64c0-1-0.2-1.9-0.6-2.8c-0.4-0.9-0.9-1.7-1.6-2.3s-1.4-1.2-2.3-1.6
			c-0.9-0.4-1.8-0.6-2.8-0.6c-1,0-1.9,0.2-2.8,0.6c-0.9,0.4-1.7,0.9-2.3,1.6c-0.7,0.7-1.2,1.4-1.6,2.3c-0.4,0.9-0.6,1.8-0.6,2.8
			s0.2,1.9,0.6,2.8c0.4,0.9,0.9,1.7,1.6,2.3c0.7,0.7,1.4,1.2,2.3,1.6c0.9,0.4,1.8,0.6,2.8,0.6s1.9-0.2,2.8-0.6
			c0.9-0.4,1.7-0.9,2.3-1.6c0.7-0.7,1.2-1.4,1.6-2.3C64.8,65.9,65,65,65,64z"/>
		<path class="st5" d="M78.6,57v17.7h-4V57h-5.1v-3.8h14.1V57H78.6z"/>
		<path class="st5" d="M97.4,59.5c0,1.1-0.2,2.1-0.6,2.9c-0.4,0.8-0.9,1.4-1.6,2c-0.7,0.5-1.5,0.9-2.4,1.1c-0.9,0.2-1.8,0.3-2.8,0.3
			h-0.8v8.9h-4V53.2h4.8c1,0,2,0.1,2.9,0.4c0.9,0.2,1.7,0.6,2.4,1.1c0.7,0.5,1.2,1.2,1.6,2C97.2,57.5,97.4,58.4,97.4,59.5z
			 M93.4,59.5c0-1-0.3-1.6-0.9-2C91.8,57.2,91,57,90,57h-0.7v5h0.8c1,0,1.8-0.2,2.4-0.6C93.1,61,93.4,60.4,93.4,59.5z"/>
	</g>
</g>
<g class="st0">
	<circle class="st6" cx="70.8" cy="90" r="62"/>
	<g class="st2">
		<g>
			<path class="st3" d="M187.9,104.9c0,3.1-0.6,6-1.9,8.6c-1.3,2.6-3,4.9-5.1,6.8c-2.1,1.9-4.6,3.4-7.4,4.5s-5.7,1.6-8.6,1.6
				c-5.1,0-9.5-1.5-13.3-4.6c-3.8-3.1-6.8-7.6-9-13.4l8.3-3.9c2,4.8,4.1,8.2,6.3,10.2c2.2,2,4.9,2.9,8,2.9c1.8,0,3.5-0.3,5.1-1
				c1.6-0.7,3-1.6,4.3-2.8c1.2-1.2,2.2-2.6,2.9-4.2c0.7-1.6,1.1-3.3,1.1-5.1c0-1.4-0.4-2.7-1.2-3.8c-0.8-1.1-1.8-2.1-2.9-3
				c-1.2-0.9-2.4-1.7-3.8-2.3c-1.4-0.7-2.6-1.3-3.7-1.9c-2.3-1.2-4.6-2.3-7-3.5c-2.3-1.2-4.4-2.5-6.4-3.9c-1.9-1.5-3.5-3.2-4.7-5.3
				c-1.2-2-1.8-4.5-1.8-7.5c0-2.8,0.5-5.3,1.4-7.7c0.9-2.4,2.3-4.4,3.9-6.1c1.7-1.7,3.7-3,6.1-4c2.4-1,5-1.5,7.8-1.5
				c3.7,0,7.3,1,10.6,2.9c3.3,1.9,6.2,5,8.8,9.3l-7.1,5.8c-2.2-3.4-4.3-5.7-6.2-7c-1.9-1.3-4-1.9-6.4-1.9c-2.8,0-5.1,1-7,2.9
				c-1.9,2-2.8,4.4-2.8,7.2c0,1.3,0.4,2.5,1.1,3.5c0.7,1,1.6,1.9,2.7,2.7s2.2,1.5,3.4,2.1c1.2,0.6,2.3,1.1,3.3,1.7l12.4,6.6
				c2.9,1.8,5,3.9,6.6,6.4C187.2,98.4,187.9,101.4,187.9,104.9z"/>
			<path class="st7" d="M235.1,125.4h-9V96.3c0-2-0.1-3.7-0.3-5.3c-0.2-1.6-0.7-2.9-1.3-4c-0.7-1.1-1.7-1.9-3-2.5
				c-1.3-0.6-3.1-0.9-5.3-0.9c-2.6,0-4.7,0.5-6.3,1.5c-1.6,1-2.9,2.3-3.7,3.9c-0.9,1.6-1.5,3.5-1.9,5.6c-0.4,2.1-0.5,4.4-0.5,6.7
				v24.2h-8.8V45.6h8.8V80c3.7-3.1,7.9-4.7,12.8-4.7c3.7,0,6.7,0.5,9.1,1.5c2.4,1,4.3,2.5,5.7,4.3c1.4,1.9,2.4,4.1,2.9,6.7
				c0.6,2.6,0.9,5.4,0.9,8.4V125.4z"/>
			<path class="st7" d="M294.4,100.7c0,3.7-0.7,7-2,10.2c-1.3,3.1-3.2,5.8-5.5,8.2c-2.4,2.3-5.1,4.1-8.3,5.4
				c-3.2,1.3-6.6,1.9-10.4,1.9c-3.6,0-6.9-0.7-10-2c-3.1-1.3-5.9-3.2-8.2-5.5c-2.4-2.3-4.2-5-5.5-8.2c-1.3-3.1-2-6.4-2-9.9
				s0.7-6.8,2-9.9c1.3-3.1,3.2-5.9,5.5-8.2c2.4-2.4,5.1-4.2,8.2-5.5c3.1-1.3,6.5-2,10-2c3.7,0,7.2,0.6,10.4,1.9
				c3.2,1.3,5.9,3.1,8.3,5.4c2.4,2.3,4.2,5,5.5,8.2C293.7,93.8,294.4,97.1,294.4,100.7z M285.6,100.8c0-2.5-0.4-4.8-1.3-6.9
				c-0.9-2.1-2.1-3.9-3.7-5.4c-1.6-1.5-3.5-2.7-5.6-3.5c-2.1-0.8-4.5-1.3-7-1.3c-2.3,0-4.5,0.4-6.5,1.3c-2,0.9-3.7,2.1-5.2,3.7
				c-1.5,1.6-2.6,3.4-3.5,5.5c-0.8,2.1-1.3,4.3-1.3,6.6c0,2.3,0.4,4.5,1.3,6.6c0.8,2.1,2,3.9,3.5,5.4c1.5,1.6,3.3,2.8,5.2,3.7
				c2,0.9,4.1,1.4,6.4,1.4c2.5,0,4.8-0.4,7-1.3c2.1-0.9,4-2.1,5.6-3.6c1.6-1.5,2.9-3.3,3.7-5.4C285.1,105.5,285.6,103.3,285.6,100.8
				z"/>
			<path class="st7" d="M323.7,86c-1.2-0.6-2-1-2.5-1.1c-0.5-0.1-0.8-0.1-1-0.1c-2.1,0-3.7,0.5-4.9,1.6c-1.2,1.1-2.1,2.5-2.8,4.1
				c-0.7,1.7-1.1,3.5-1.3,5.5c-0.2,2-0.3,3.8-0.3,5.5v24.1h-9V76.6h9v4.5c1-1.3,2.3-2.6,4.1-3.7c1.7-1.2,3.5-1.7,5.3-1.7
				c1,0,2,0.1,3.2,0.3c1.2,0.2,2.8,0.7,4.9,1.5L323.7,86z"/>
			<path class="st7" d="M345.7,85.1v40.4h-9V85.1h-7.2v-8.4h7.2V59h9v17.6h10.2v8.4H345.7z"/>
			<path class="st3" d="M428.9,125.4L420.1,80l-0.4-4.1l-1.3,4.3l-18.1,45.3h-5.3l-18.2-45.2l-1.3-4.5l-0.5,4.4l-9.1,45.3h-9.2
				l14.3-70.6h5.3l21.3,53.1l21.3-53.1h5.3l14.2,70.6H428.9z"/>
			<path class="st3" d="M485.6,104.9c0,3.1-0.6,6-1.9,8.6c-1.3,2.6-3,4.9-5.1,6.8c-2.1,1.9-4.6,3.4-7.4,4.5s-5.7,1.6-8.6,1.6
				c-5.1,0-9.5-1.5-13.3-4.6c-3.8-3.1-6.8-7.6-9-13.4l8.3-3.9c2,4.8,4.1,8.2,6.3,10.2c2.2,2,4.9,2.9,8,2.9c1.8,0,3.5-0.3,5.1-1
				s3-1.6,4.3-2.8c1.2-1.2,2.2-2.6,2.9-4.2c0.7-1.6,1.1-3.3,1.1-5.1c0-1.4-0.4-2.7-1.2-3.8c-0.8-1.1-1.8-2.1-2.9-3
				c-1.2-0.9-2.4-1.7-3.8-2.3c-1.4-0.7-2.6-1.3-3.7-1.9c-2.3-1.2-4.6-2.3-7-3.5c-2.3-1.2-4.4-2.5-6.4-3.9c-1.9-1.5-3.5-3.2-4.7-5.3
				c-1.2-2-1.8-4.5-1.8-7.5c0-2.8,0.5-5.3,1.4-7.7c0.9-2.4,2.3-4.4,3.9-6.1c1.7-1.7,3.7-3,6.1-4c2.4-1,5-1.5,7.8-1.5
				c3.7,0,7.3,1,10.6,2.9c3.3,1.9,6.2,5,8.8,9.3l-7.1,5.8c-2.2-3.4-4.3-5.7-6.2-7c-1.9-1.3-4-1.9-6.4-1.9c-2.8,0-5.1,1-7,2.9
				c-1.9,2-2.8,4.4-2.8,7.2c0,1.3,0.4,2.5,1.1,3.5c0.7,1,1.6,1.9,2.7,2.7s2.2,1.5,3.4,2.1c1.2,0.6,2.3,1.1,3.3,1.7l12.4,6.6
				c2.9,1.8,5,3.9,6.6,6.4C484.8,98.4,485.6,101.4,485.6,104.9z"/>
		</g>
	</g>
	<g class="st2">
		<polyline class="st8" points="43.9,101.4 117.7,84.5 49.5,108.6 74,128.4 117.7,84.5 23.9,85.2 43.9,101.4 40.3,128.2 58.7,116 		
			"/>
		<line class="st8" x1="40.3" y1="128.2" x2="49.5" y2="108.6"/>
	</g>
	<g class="st2">
		<path class="st3" d="M58.4,67.6c0,1-0.2,1.9-0.6,2.7c-0.4,0.8-1,1.5-1.6,2.2c-0.7,0.6-1.5,1.1-2.4,1.4c-0.9,0.3-1.8,0.5-2.7,0.5
			c-3.3,0-5.8-2-7.3-6.1l3.5-1.6c0.6,1.6,1.3,2.6,1.9,3.2c0.6,0.5,1.3,0.8,2,0.8c0.4,0,0.8-0.1,1.2-0.3s0.7-0.4,1-0.7
			c0.3-0.3,0.5-0.6,0.7-1c0.2-0.4,0.3-0.8,0.3-1.2c0-0.3-0.1-0.6-0.3-0.9c-0.2-0.3-0.5-0.5-0.8-0.7s-0.7-0.4-1-0.6
			c-0.4-0.2-0.6-0.3-0.9-0.5c-0.7-0.4-1.4-0.7-2.1-1.1c-0.7-0.4-1.4-0.8-2-1.2c-0.6-0.5-1.1-1-1.5-1.7c-0.4-0.6-0.6-1.4-0.6-2.4
			c0-0.9,0.2-1.7,0.5-2.5c0.3-0.7,0.7-1.4,1.3-1.9c0.6-0.6,1.2-1,2-1.3c0.8-0.3,1.6-0.5,2.5-0.5c1.2,0,2.4,0.3,3.5,1
			c1.1,0.7,2.1,1.8,3,3.2l-3,2.4c-0.4-0.6-0.8-1.1-1.1-1.5c-0.3-0.4-0.6-0.7-0.9-0.9c-0.3-0.2-0.5-0.4-0.8-0.4
			c-0.2-0.1-0.5-0.1-0.8-0.1c-0.6,0-1.1,0.2-1.6,0.6c-0.4,0.4-0.6,1-0.6,1.7c0,0.3,0.1,0.6,0.3,0.8c0.2,0.2,0.4,0.4,0.7,0.6
			c0.3,0.2,0.6,0.4,0.9,0.5c0.3,0.1,0.6,0.3,0.8,0.4l3.7,1.9c0.9,0.6,1.6,1.3,2.1,2.1C58.1,65.5,58.4,66.4,58.4,67.6z"/>
		<path class="st3" d="M80.6,74.1l-2.2-10.7l-0.3-1.9l-0.7,1.9L73,74.1h-2.4L66,63.1l-0.6-1.8l-0.3,1.9l-2.3,10.9h-4.1l4.5-21.4h2.5
			l5.9,14.2l5.9-14.2h2.5l4.5,21.4H80.6z"/>
		<path class="st3" d="M99.8,67.6c0,1-0.2,1.9-0.6,2.7c-0.4,0.8-1,1.5-1.6,2.2c-0.7,0.6-1.5,1.1-2.4,1.4c-0.9,0.3-1.8,0.5-2.7,0.5
			c-3.3,0-5.8-2-7.3-6.1l3.5-1.6c0.6,1.6,1.3,2.6,1.9,3.2c0.6,0.5,1.3,0.8,2,0.8c0.4,0,0.8-0.1,1.2-0.3s0.7-0.4,1-0.7
			c0.3-0.3,0.5-0.6,0.7-1c0.2-0.4,0.3-0.8,0.3-1.2c0-0.3-0.1-0.6-0.3-0.9c-0.2-0.3-0.5-0.5-0.8-0.7s-0.7-0.4-1-0.6
			c-0.4-0.2-0.6-0.3-0.9-0.5c-0.7-0.4-1.4-0.7-2.1-1.1c-0.7-0.4-1.4-0.8-2-1.2c-0.6-0.5-1.1-1-1.5-1.7c-0.4-0.6-0.6-1.4-0.6-2.4
			c0-0.9,0.2-1.7,0.5-2.5c0.3-0.7,0.7-1.4,1.3-1.9c0.6-0.6,1.2-1,2-1.3c0.8-0.3,1.6-0.5,2.5-0.5c1.2,0,2.4,0.3,3.5,1
			c1.1,0.7,2.1,1.8,3,3.2l-3,2.4c-0.4-0.6-0.8-1.1-1.1-1.5c-0.3-0.4-0.6-0.7-0.9-0.9c-0.3-0.2-0.5-0.4-0.8-0.4
			c-0.2-0.1-0.5-0.1-0.8-0.1c-0.6,0-1.1,0.2-1.6,0.6c-0.4,0.4-0.6,1-0.6,1.7c0,0.3,0.1,0.6,0.3,0.8c0.2,0.2,0.4,0.4,0.7,0.6
			c0.3,0.2,0.6,0.4,0.9,0.5c0.3,0.1,0.6,0.3,0.8,0.4l3.7,1.9c0.9,0.6,1.6,1.3,2.1,2.1C99.5,65.5,99.8,66.4,99.8,67.6z"/>
	</g>
</g>
<g>
	<g>
		<g>
			<path class="st3" d="M189,102.9c0,3-0.6,5.7-1.8,8.2c-1.2,2.5-2.9,4.7-4.9,6.5c-2,1.8-4.4,3.2-7,4.3s-5.4,1.5-8.2,1.5
				c-4.8,0-9-1.5-12.6-4.4c-3.6-2.9-6.5-7.2-8.6-12.8l7.9-3.7c1.9,4.6,3.9,7.8,6,9.6c2.1,1.9,4.7,2.8,7.6,2.8c1.7,0,3.3-0.3,4.8-1
				c1.5-0.6,2.9-1.5,4.1-2.7c1.2-1.1,2.1-2.5,2.8-4c0.7-1.5,1-3.1,1-4.8c0-1.4-0.4-2.6-1.1-3.6c-0.8-1.1-1.7-2-2.8-2.9
				c-1.1-0.8-2.3-1.6-3.6-2.2c-1.3-0.6-2.5-1.2-3.5-1.8c-2.2-1.1-4.4-2.2-6.6-3.3c-2.2-1.1-4.2-2.3-6-3.7c-1.8-1.4-3.3-3.1-4.4-5
				c-1.1-1.9-1.7-4.3-1.7-7.1c0-2.6,0.4-5.1,1.3-7.3c0.9-2.2,2.1-4.2,3.7-5.8c1.6-1.6,3.5-2.9,5.8-3.8c2.2-0.9,4.7-1.4,7.4-1.4
				c3.6,0,6.9,0.9,10,2.7c3.1,1.8,5.9,4.8,8.4,8.8l-6.7,5.5c-2.1-3.2-4.1-5.4-5.9-6.7c-1.8-1.2-3.8-1.8-6-1.8
				c-2.6,0-4.8,0.9-6.6,2.8c-1.8,1.9-2.7,4.1-2.7,6.9c0,1.3,0.3,2.4,1,3.3c0.7,0.9,1.5,1.8,2.5,2.5s2.1,1.4,3.2,2
				c1.1,0.6,2.2,1.1,3.1,1.6l11.8,6.2c2.7,1.7,4.8,3.7,6.2,6.1C188.3,96.8,189,99.6,189,102.9z"/>
			<path class="st3" d="M233.8,122.5h-8.5V94.8c0-1.9-0.1-3.6-0.3-5.1c-0.2-1.5-0.6-2.8-1.3-3.8s-1.6-1.8-2.9-2.3
				c-1.3-0.5-3-0.8-5.1-0.8c-2.5,0-4.4,0.5-6,1.4c-1.5,0.9-2.7,2.2-3.6,3.7c-0.8,1.5-1.4,3.3-1.8,5.3c-0.3,2-0.5,4.1-0.5,6.3v23
				h-8.4V46.7h8.4v32.6c3.5-3,7.5-4.4,12.2-4.4c3.5,0,6.3,0.5,8.6,1.5c2.3,1,4.1,2.3,5.4,4.1c1.3,1.8,2.2,3.9,2.8,6.3
				c0.5,2.5,0.8,5.1,0.8,8V122.5z"/>
			<path class="st3" d="M290,99c0,3.5-0.6,6.7-1.9,9.6c-1.3,3-3,5.5-5.3,7.7c-2.2,2.2-4.9,3.9-7.9,5.1c-3,1.2-6.3,1.8-9.8,1.8
				c-3.4,0-6.6-0.6-9.5-1.9c-3-1.3-5.6-3-7.8-5.2c-2.2-2.2-4-4.8-5.3-7.7c-1.3-3-1.9-6.1-1.9-9.4s0.6-6.4,1.9-9.4
				c1.3-3,3-5.6,5.3-7.8c2.2-2.2,4.8-4,7.8-5.3c3-1.3,6.1-1.9,9.5-1.9c3.6,0,6.8,0.6,9.8,1.8c3,1.2,5.6,2.9,7.9,5.1
				c2.2,2.2,4,4.8,5.3,7.7C289.4,92.4,290,95.6,290,99z M281.6,99.1c0-2.4-0.4-4.5-1.3-6.5c-0.8-2-2-3.7-3.6-5.1
				c-1.5-1.4-3.3-2.6-5.3-3.4c-2-0.8-4.2-1.2-6.6-1.2c-2.2,0-4.3,0.4-6.2,1.3c-1.9,0.8-3.6,2-5,3.5c-1.4,1.5-2.5,3.2-3.3,5.2
				c-0.8,2-1.2,4.1-1.2,6.3c0,2.2,0.4,4.3,1.2,6.2c0.8,1.9,1.9,3.7,3.4,5.1c1.4,1.5,3.1,2.7,5,3.6c1.9,0.9,3.9,1.3,6.1,1.3
				c2.4,0,4.6-0.4,6.6-1.3c2-0.8,3.8-2,5.3-3.4c1.5-1.4,2.7-3.2,3.6-5.1C281.2,103.5,281.6,101.4,281.6,99.1z"/>
			<path class="st3" d="M317.8,85c-1.1-0.6-1.9-0.9-2.3-1c-0.5-0.1-0.8-0.1-1-0.1c-1.9,0-3.5,0.5-4.6,1.5s-2,2.3-2.7,3.9
				c-0.6,1.6-1.1,3.3-1.3,5.2c-0.2,1.9-0.3,3.6-0.3,5.2v22.9h-8.5V76.1h8.5v4.3c0.9-1.3,2.2-2.5,3.9-3.6c1.7-1.1,3.3-1.7,5-1.7
				c0.9,0,1.9,0.1,3,0.3c1.1,0.2,2.7,0.6,4.7,1.4L317.8,85z"/>
			<path class="st3" d="M338.8,84.1v38.3h-8.5V84.1h-6.9v-8h6.9V59.4h8.5v16.8h9.6v8H338.8z"/>
			<path class="st3" d="M417.7,122.5l-8.4-43.2l-0.4-3.9l-1.3,4.1l-17.1,43h-5.1l-17.3-42.9l-1.3-4.3l-0.5,4.2l-8.6,43H349l13.6-67
				h5.1l20.2,50.4l20.2-50.4h5.1l13.5,67H417.7z"/>
			<path class="st3" d="M471.5,102.9c0,3-0.6,5.7-1.8,8.2c-1.2,2.5-2.9,4.7-4.9,6.5c-2,1.8-4.4,3.2-7,4.3s-5.4,1.5-8.2,1.5
				c-4.8,0-9-1.5-12.6-4.4c-3.6-2.9-6.5-7.2-8.6-12.8l7.9-3.7c1.9,4.6,3.9,7.8,6,9.6c2.1,1.9,4.7,2.8,7.6,2.8c1.7,0,3.3-0.3,4.8-1
				s2.9-1.5,4.1-2.7c1.2-1.1,2.1-2.5,2.8-4c0.7-1.5,1-3.1,1-4.8c0-1.4-0.4-2.6-1.1-3.6c-0.8-1.1-1.7-2-2.8-2.9
				c-1.1-0.8-2.3-1.6-3.6-2.2c-1.3-0.6-2.5-1.2-3.5-1.8c-2.2-1.1-4.4-2.2-6.6-3.3c-2.2-1.1-4.2-2.3-6-3.7c-1.8-1.4-3.3-3.1-4.4-5
				c-1.1-1.9-1.7-4.3-1.7-7.1c0-2.6,0.4-5.1,1.3-7.3c0.9-2.2,2.1-4.2,3.7-5.8c1.6-1.6,3.5-2.9,5.8-3.8c2.2-0.9,4.7-1.4,7.4-1.4
				c3.6,0,6.9,0.9,10,2.7c3.1,1.8,5.9,4.8,8.4,8.8l-6.7,5.5c-2.1-3.2-4.1-5.4-5.9-6.7c-1.8-1.2-3.8-1.8-6-1.8
				c-2.6,0-4.8,0.9-6.6,2.8c-1.8,1.9-2.7,4.1-2.7,6.9c0,1.3,0.3,2.4,1,3.3c0.7,0.9,1.5,1.8,2.5,2.5s2.1,1.4,3.2,2
				c1.1,0.6,2.2,1.1,3.1,1.6l11.8,6.2c2.7,1.7,4.8,3.7,6.2,6.1C470.8,96.8,471.5,99.6,471.5,102.9z"/>
		</g>
	</g>
	<g>
		<polygon class="st3" points="56.1,94.7 110.4,75.5 52.9,88.6 50.1,109 56.6,95.1 		"/>
		<polygon class="st3" points="57.8,96.1 50.5,111.5 65,101.9 		"/>
		<polygon class="st3" points="115.8,72.8 35.2,73.4 52.4,87.3 		"/>
		<polygon class="st3" points="58.9,95.2 80.8,112.7 119.6,73.7 		"/>
		<path class="st3" d="M77.8,29.9c-32.5,0-58.9,26.4-58.9,58.9s26.4,58.9,58.9,58.9s58.9-26.4,58.9-58.9S110.3,29.9,77.8,29.9z
			 M80.9,114.6l-14.7-11.8L47.9,115l3.5-26.6L31.3,72l92.7-0.7L80.9,114.6z"/>
	</g>
</g>
</svg>
